<?xml version="1.0" encoding="UTF-8" standalone="no"?>
<!DOCTYPE svg PUBLIC "-//W3C//DTD SVG 1.1//EN" "http://www.w3.org/Graphics/SVG/1.1/DTD/svg11.dtd">

<!--
 
 sweet-b.svg: buzz buzz buzzzzzz

 SPDX-License-Identifier: BSD-3-Clause

 This file is part of Sweet B, a safe, compact, embeddable library for
 elliptic curve cryptography.

 https://github.com/westerndigitalcorporation/sweet-b

 Copyright (c) 2020 Western Digital Corporation or its affiliates.

 Redistribution and use in source and binary forms, with or without
 modification, are permitted provided that the following conditions are met:

 1. Redistributions of source code must retain the above copyright notice,
 this list of conditions and the following disclaimer.

 2. Redistributions in binary form must reproduce the above copyright notice,
 this list of conditions and the following disclaimer in the documentation
 and/or other materials provided with the distribution.

 3. Neither the name of the copyright holder nor the names of its contributors
 may be used to endorse or promote products derived from this software without
 specific prior written permission.

 THIS SOFTWARE IS PROVIDED BY THE COPYRIGHT HOLDERS AND CONTRIBUTORS "AS IS"
 AND ANY EXPRESS OR IMPLIED WARRANTIES, INCLUDING, BUT NOT LIMITED TO, THE
 IMPLIED WARRANTIES OF MERCHANTABILITY AND FITNESS FOR A PARTICULAR PURPOSE
 ARE DISCLAIMED. IN NO EVENT SHALL THE COPYRIGHT HOLDER OR CONTRIBUTORS BE
 LIABLE FOR ANY DIRECT, INDIRECT, INCIDENTAL, SPECIAL, EXEMPLARY, OR
 CONSEQUENTIAL DAMAGES (INCLUDING, BUT NOT LIMITED TO, PROCUREMENT OF
 SUBSTITUTE GOODS OR SERVICES; LOSS OF USE, DATA, OR PROFITS; OR BUSINESS
 INTERRUPTION) HOWEVER CAUSED AND ON ANY THEORY OF LIABILITY, WHETHER IN
 CONTRACT, STRICT LIABILITY, OR TORT (INCLUDING NEGLIGENCE OR OTHERWISE)
 ARISING IN ANY WAY OUT OF THE USE OF THIS SOFTWARE, EVEN IF ADVISED OF THE
 POSSIBILITY OF SUCH DAMAGE.
 
-->

<svg width="330" height="133" viewBox="0 0 330 133" version="1.1" xmlns="http://www.w3.org/2000/svg" xmlns:xlink="http://www.w3.org/1999/xlink" xml:space="preserve" xmlns:serif="http://www.serif.com/" style="fill-rule:evenodd;clip-rule:evenodd;stroke-linecap:round;stroke-linejoin:round;stroke-miterlimit:1.5;">
    <g transform="matrix(0.503817,0,0,0.503817,-73.8881,-141.969)">
        <path d="M217.523,432.891C217.523,432.68 217.523,432.399 217.523,432.188C217.523,415.735 208.171,408.563 191.648,402.657L175.406,397.172C168.515,394.641 165.562,391.337 165.562,384.727C165.562,374.391 174.281,371.157 184.546,371.157C192.914,371.157 202.335,373.829 208.945,377.485L214.5,363.915C204.445,358.922 193.406,356.813 183.281,356.813C164.507,356.813 148.968,364.899 148.968,385.43C148.968,399.774 156.492,407.649 169.5,412.29L187.078,418.055C196.992,421.571 200.859,424.946 200.859,432.751C200.859,443.579 192,448.219 181.031,448.219C171.117,448.219 159.585,444.493 151.148,438.094L151.148,454.547C159.515,459.54 171.046,462.633 182.085,462.633C200.156,462.633 217.101,454.407 217.523,432.891Z" style="fill-rule:nonzero;"/>
        <path d="M246.492,460.876L260.695,460.876L277.781,402.446L294.445,460.876L308.507,460.876L329.179,386.485L315.187,386.485L301.406,442.594L285.867,386.485L270.609,386.485L254.789,442.735L241.359,386.485L226.382,386.485L246.492,460.876Z" style="fill-rule:nonzero;"/>
        <path d="M374.742,462.141C384.023,462.141 391.054,460.102 396.679,456.376L394.289,445.547C390.07,447.657 384.164,450.258 375.375,450.258C363.984,450.258 353.367,445.196 352.242,428.391L398.578,428.391C398.578,428.391 399.14,422.415 399.14,421.008C399.14,400.337 388.875,385.219 370.101,385.219C350.343,385.219 336.21,400.055 336.21,423.751C336.21,449.063 353.437,462.141 374.742,462.141ZM385.359,417.774L352.523,417.774C353.578,404.485 360.75,397.313 370.382,397.313C380.085,397.313 384.726,404.485 385.359,417.774Z" style="fill-rule:nonzero;"/>
        <path d="M448.5,462.141C457.781,462.141 464.812,460.102 470.437,456.376L468.046,445.547C463.828,447.657 457.921,450.258 449.132,450.258C437.742,450.258 427.125,445.196 426,428.391L472.335,428.391C472.335,428.391 472.898,422.415 472.898,421.008C472.898,400.337 462.632,385.219 443.859,385.219C424.101,385.219 409.968,400.055 409.968,423.751C409.968,449.063 427.195,462.141 448.5,462.141ZM459.117,417.774L426.281,417.774C427.335,404.485 434.507,397.313 444.14,397.313C453.843,397.313 458.484,404.485 459.117,417.774Z" style="fill-rule:nonzero;"/>
        <path d="M526.828,461.297L527.46,449.837L524.226,449.555C509.882,448.29 507.21,448.782 507.21,435.493L507.21,396.751L526.335,396.751L526.335,386.485L507.21,386.485L507.21,364.758L493.781,365.813L492.304,386.485L480.21,387.258L479.718,396.751L491.46,396.751L491.46,435.071C491.46,453.774 496.382,461.297 517.265,461.297L526.828,461.297Z" style="fill-rule:nonzero;"/>
        <path d="M577.664,460.876L617.46,460.876C641.085,460.876 654.164,449.696 654.164,430.852C654.164,417.563 647.132,409.829 636.375,405.962C646.781,401.04 651,393.657 651,383.672C651,365.18 637.781,358.219 612.398,358.219L577.664,358.219L577.664,460.876ZM594.539,371.157L610.921,371.157C626.671,371.157 634.054,374.18 634.054,386.063C634.054,397.383 627.093,400.829 614.718,400.829L594.539,400.829L594.539,371.157ZM594.539,412.782L613.101,412.782C629.695,412.782 637.429,417.422 637.429,430.079C637.429,442.243 630.468,448.219 615.07,448.219L594.539,448.219L594.539,412.782Z" style="fill-rule:nonzero;"/>
    </g>
    <g transform="matrix(0.176707,0.176707,-0.176707,0.176707,235.844,-199.77)">
        <g transform="matrix(1,0,0,1,754.526,340.661)">
            <path d="M61.572,139.54C73.066,147.357 90.498,152.346 110,152.346C129.502,152.346 146.934,147.357 158.428,139.54C154.278,168.785 134.161,190.997 110,190.997C85.839,190.997 65.722,168.785 61.572,139.54Z" style="fill:none;stroke:black;stroke-width:12px;"/>
        </g>
        <g transform="matrix(1,0,0,1,754.526,340.661)">
            <path d="M61.572,139.54C73.066,147.357 90.498,152.346 110,152.346C129.502,152.346 146.934,147.357 158.428,139.54C154.278,168.785 65.722,168.785 61.572,139.54Z" style="fill:none;stroke:black;stroke-width:12px;"/>
        </g>
        <g transform="matrix(1,0,0,1,754.526,332.661)">
            <path d="M69.393,65.464C78.477,56.64 93.287,50.89 110,50.89C126.713,50.89 141.523,56.64 150.607,65.464C136.779,59.454 124.507,59.058 117.864,65.701C108.158,75.408 113.478,97.127 129.377,118.162C123.416,119.919 116.869,120.89 110,120.89C103.131,120.89 96.584,119.919 90.623,118.162C106.522,97.127 111.842,75.408 102.136,65.701C95.493,59.058 83.221,59.454 69.393,65.464Z" style="stroke:black;stroke-width:5.33px;"/>
        </g>
        <g transform="matrix(1,0,0,1,754.526,332.661)">
            <path d="M75.025,63.298C75.777,44.644 91.16,29.73 110,29.73C128.84,29.73 144.223,44.644 144.975,63.298C133.495,59.479 123.589,59.976 117.864,65.701C111.155,72.41 111.625,84.859 117.806,98.854C115.296,99.427 112.683,99.73 110,99.73C107.317,99.73 104.704,99.427 102.194,98.854C108.375,84.859 108.845,72.41 102.136,65.701C96.411,59.976 86.505,59.479 75.025,63.298Z" style="stroke:black;stroke-width:11.33px;"/>
        </g>
        <g transform="matrix(1,0,0,1,754.526,332.661)">
            <path d="M36.528,88.691C60.977,64.242 90.375,53.94 102.136,65.701C113.897,77.462 103.596,106.86 79.147,131.309C54.698,155.758 25.3,166.06 13.539,154.299C1.778,142.538 12.079,113.14 36.528,88.691ZM183.472,88.691C207.921,113.14 218.222,142.538 206.461,154.299C194.7,166.06 165.302,155.758 140.853,131.309C116.404,106.86 106.103,77.462 117.864,65.701C129.625,53.94 159.023,64.242 183.472,88.691Z" style="fill:none;stroke:black;stroke-width:12px;"/>
        </g>
        <g id="W" transform="matrix(1.51813,1.51813,-0.730278,0.730278,768.455,196.292)">
            <circle cx="129.964" cy="67.19" r="29.18" style="fill:none;stroke:black;stroke-width:7.12px;"/>
        </g>
        <g id="W1" serif:id="W" transform="matrix(1.51813,-1.51813,0.730278,0.730278,565.994,590.895)">
            <circle cx="129.964" cy="67.19" r="29.18" style="fill:none;stroke:black;stroke-width:7.12px;"/>
        </g>
    </g>
    <g transform="matrix(-0.0450105,-0.0606724,0.228178,-0.169277,213.433,162.596)">
        <path d="M572.997,464.831L534.331,396.606C515.958,361.274 496.32,340.217 474.997,338.164C460.479,339.38 439.329,351.509 413,372.164C392.089,390.046 370.646,398.561 348.607,396.606C318.178,392.717 282.818,362.272 278.476,266.5C282.649,211.865 294.67,136.599 348.607,135.426C361.388,136.642 366.87,132.136 413,159.497C434.402,176.407 456.431,196.825 474.331,194.164C501.63,192.034 516.628,164.954 524.997,153.497L570.331,71.497" style="fill:none;stroke:black;stroke-width:12.93px;stroke-dasharray:38.78,25.85,0,0;"/>
    </g>
</svg>
